<svg width="22" height="22" viewBox="0 0 22 22" fill="none" xmlns="http://www.w3.org/2000/svg">
<path d="M10.9893 0C4.9199 0 0 4.9199 0 10.9893C0 15.6446 2.89722 19.6191 6.98591 21.2197C6.88897 20.3493 6.80303 19.0175 7.02166 18.0688C7.22241 17.2094 8.31076 12.6078 8.31076 12.6078C8.31076 12.6078 7.98144 11.945 7.98144 10.9749C7.98144 9.4493 8.86971 8.30732 9.96906 8.30732C10.9075 8.30732 11.362 9.00928 11.362 9.85425C11.362 10.7961 10.7638 12.2069 10.4524 13.5139C10.1911 14.6064 11.0003 15.4974 12.0784 15.4974C14.0302 15.4974 15.5339 13.4383 15.5339 10.4661C15.5339 7.84462 13.6432 6.00412 10.9433 6.00412C7.81712 6.00412 5.9835 8.35339 5.9835 10.77C5.9835 11.7154 6.34514 12.7322 6.80028 13.2802C6.88965 13.3909 6.90065 13.4878 6.87521 13.5992C6.79271 13.9429 6.60639 14.6985 6.57064 14.8491C6.52045 15.0533 6.4132 15.0959 6.20213 14.9997C4.83396 14.3658 3.97112 12.3603 3.97112 10.7418C3.97112 7.27948 6.49226 4.09213 11.2334 4.09213C15.0437 4.09213 18.0082 6.81334 18.0082 10.4373C18.0082 14.2296 15.6198 17.2802 12.297 17.2802C11.1832 17.2802 10.1375 16.7033 9.76899 16.0158L9.08147 18.6263C8.83465 19.5827 8.16088 20.7817 7.70643 21.5091C8.73771 21.824 9.82262 22 10.9612 22C17.0203 22 21.9471 17.0835 21.9471 11.0107C21.9471 4.94122 17.0196 0.0247508 10.9612 0.0247508L10.9893 0Z" fill="white"/>
</svg>
