<svg width="230" height="32" viewBox="0 0 230 32" fill="none" xmlns="http://www.w3.org/2000/svg">
<path d="M14.9232 1.11315L10.8424 9.38713L1.71232 10.7182C0.0750205 10.9557 -0.581149 12.9742 0.606205 14.1303L7.21164 20.567L5.64933 29.6596C5.36812 31.3032 7.09915 32.5343 8.54897 31.7656L16.7167 27.4724L24.8845 31.7656C26.3343 32.528 28.0653 31.3032 27.7841 29.6596L26.2218 20.567L32.8272 14.1303C34.0146 12.9742 33.3584 10.9557 31.7211 10.7182L22.591 9.38713L18.5102 1.11315C17.7791 -0.361663 15.6606 -0.380411 14.9232 1.11315Z" fill="#747474"/>
<path d="M63.9232 1.11315L59.8424 9.38713L50.7123 10.7182C49.075 10.9557 48.4189 12.9742 49.6062 14.1303L56.2116 20.567L54.6493 29.6596C54.3681 31.3032 56.0992 32.5343 57.549 31.7656L65.7167 27.4724L73.8845 31.7656C75.3343 32.528 77.0653 31.3032 76.7841 29.6596L75.2218 20.567L81.8272 14.1303C83.0146 12.9742 82.3584 10.9557 80.7211 10.7182L71.591 9.38713L67.5102 1.11315C66.7791 -0.361663 64.6606 -0.380411 63.9232 1.11315Z" fill="#747474"/>
<path d="M112.923 1.11315L108.842 9.38713L99.7123 10.7182C98.075 10.9557 97.4189 12.9742 98.6062 14.1303L105.212 20.567L103.649 29.6596C103.368 31.3032 105.099 32.5343 106.549 31.7656L114.717 27.4724L122.884 31.7656C124.334 32.528 126.065 31.3032 125.784 29.6596L124.222 20.567L130.827 14.1303C132.015 12.9742 131.358 10.9557 129.721 10.7182L120.591 9.38713L116.51 1.11315C115.779 -0.361663 113.661 -0.380411 112.923 1.11315Z" fill="#747474"/>
<path d="M161.923 1.11315L157.842 9.38713L148.712 10.7182C147.075 10.9557 146.419 12.9742 147.606 14.1303L154.212 20.567L152.649 29.6596C152.368 31.3032 154.099 32.5343 155.549 31.7656L163.717 27.4724L171.884 31.7656C173.334 32.528 175.065 31.3032 174.784 29.6596L173.222 20.567L179.827 14.1303C181.015 12.9742 180.358 10.9557 178.721 10.7182L169.591 9.38713L165.51 1.11315C164.779 -0.361663 162.661 -0.380411 161.923 1.11315Z" fill="#747474"/>
<path d="M212.581 27.6181L205.21 31.4928C203.264 32.5162 200.989 30.8634 201.361 28.6963L202.769 20.4861L196.804 14.6716C195.23 13.1368 196.098 10.4627 198.274 10.1466L206.518 8.94869L210.204 1.47879C210.691 0.493903 211.635 0.000963175 212.581 1.50277e-06C213.528 -0.00099333 214.475 0.491947 214.962 1.47879L218.649 8.94869L226.893 10.1466C229.069 10.4628 229.937 13.1368 228.363 14.6716L222.398 20.4861L223.806 28.6963C224.178 30.8634 221.903 32.5162 219.957 31.4928L212.581 27.6181ZM212.581 4.15721V24.2144C213.006 24.2139 213.431 24.3155 213.818 24.5191L220.31 27.9324L219.07 20.703C218.923 19.8424 219.208 18.9643 219.833 18.3548L225.086 13.235L217.827 12.1802C216.963 12.0547 216.216 11.5119 215.83 10.729L212.583 4.15147L212.581 4.15721Z" fill="#747474"/>
</svg>
