<svg width="94" height="92" viewBox="0 0 94 92" fill="none" xmlns="http://www.w3.org/2000/svg">
<mask id="mask0_98_540" style="mask-type:alpha" maskUnits="userSpaceOnUse" x="0" y="0" width="94" height="92">
<rect width="94" height="92" fill="#FB1313"/>
</mask>
<g mask="url(#mask0_98_540)">
<path d="M82.2789 46.8948C82.2789 68.4784 65.3692 85.9743 44.5107 85.9743C23.6523 85.9743 6.7417 68.4784 6.7417 46.8948" fill="url(#paint0_linear_98_540)"/>
<path d="M44.5108 55.3794C65.3696 55.3794 82.2789 51.4285 82.2789 46.5549C82.2789 41.6812 65.3696 37.7304 44.5108 37.7304C23.652 37.7304 6.74268 41.6812 6.74268 46.5549C6.74268 51.4285 23.652 55.3794 44.5108 55.3794Z" fill="url(#paint1_linear_98_540)"/>
<path d="M44.5107 53.804C34.5315 53.804 25.1665 52.8998 18.1401 51.2579C10.0389 49.3648 8.26514 47.2212 8.26514 46.5549C8.26514 45.8885 10.0389 43.745 18.1401 41.8518C25.1665 40.21 34.5324 39.3058 44.5107 39.3058C54.489 39.3058 63.855 40.21 70.8813 41.8518C78.9816 43.745 80.7563 45.8885 80.7563 46.5549C80.7563 47.2212 78.9825 49.3648 70.8813 51.2579C63.855 52.8998 54.489 53.804 44.5107 53.804Z" fill="white"/>
<path d="M87.6468 39.196C85.4263 41.6659 82.3812 42.8667 79.3595 42.7676L74.6309 48.0272H74.6299L53.5054 49.9599L68.9326 32.8039C68.5948 29.6676 69.5291 26.4032 71.771 23.911C75.85 19.3746 82.7107 19.1184 87.0949 23.34C91.4801 27.5597 91.7267 34.6595 87.6468 39.196Z" fill="url(#paint2_linear_98_540)"/>
<path d="M48.6475 88.4048C43.7375 89.023 38.6915 88.632 33.8625 87.3369C29.0343 86.034 24.4146 83.8125 20.3356 80.782C16.252 77.7613 12.6951 73.9557 9.92456 69.5993C8.53326 67.424 7.35879 65.1023 6.39 62.6939L6.04101 61.784L5.86698 61.3294C5.80742 61.1783 5.76181 61.0223 5.70784 60.8682L5.39887 59.9428L5.24531 59.4806L5.10385 59.0126C4.72881 57.7646 4.42542 56.4954 4.16484 55.2195C3.16068 50.1091 2.9792 44.8389 3.67811 39.6726C3.85959 38.3823 4.09225 37.0987 4.39005 35.8305C4.68972 34.5623 5.05174 33.3085 5.48635 32.0788C5.59802 31.7735 5.70505 31.4654 5.8251 31.163L6.00285 30.7085L6.19084 30.2569L6.28483 30.0316L6.38348 29.8082L6.58171 29.3623L6.79017 28.9203C6.85904 28.773 6.92977 28.6257 7.00422 28.4812C7.32063 27.8495 7.65939 27.2284 8.02234 26.6218C8.05026 26.5736 8.07911 26.5245 8.10889 26.4773C8.38715 26.017 8.67937 25.5654 8.98648 25.1244C9.35315 24.588 9.74774 24.0728 10.1554 23.5682C10.3666 23.3217 10.5686 23.0694 10.7891 22.8316L11.1139 22.4714L11.4499 22.1219L11.6183 21.9466L11.7914 21.7781L12.1376 21.4401L12.495 21.1137L12.6737 20.9509L12.857 20.794L13.2246 20.48C13.3493 20.378 13.4768 20.2807 13.6024 20.1806C13.8519 19.9764 14.1152 19.7925 14.373 19.6018C15.4181 18.8575 16.5274 18.2133 17.6786 17.6721C18.2575 17.4102 18.841 17.1598 19.4403 16.9528L19.8889 16.7968C20.0387 16.7457 20.1867 16.6908 20.3393 16.6494C20.6427 16.5608 20.9443 16.4703 21.2486 16.3865C22.4696 16.0697 23.7101 15.8588 24.9544 15.7327C26.1996 15.6094 27.4485 15.5661 28.6928 15.6075C29.9361 15.6518 31.1738 15.7654 32.4023 15.9359C33.6298 16.1131 34.8489 16.3394 36.0541 16.6244C34.8303 16.4405 33.6047 16.2893 32.3762 16.2016C31.1478 16.1073 29.9175 16.0668 28.6909 16.0967C27.4643 16.1342 26.2424 16.2296 25.0344 16.4125C23.8274 16.5945 22.6343 16.8584 21.4729 17.2214L20.9852 17.387C21.1872 17.3678 21.391 17.3553 21.5929 17.3476L22.0415 17.3408C22.1913 17.3447 22.3402 17.3562 22.4891 17.363L22.7115 17.3755C22.7851 17.3842 22.8595 17.3947 22.933 17.4044L23.3742 17.4631L22.9302 17.4477C22.8558 17.4448 22.7823 17.4419 22.7087 17.441L22.4863 17.4506C22.3384 17.4583 22.1913 17.4622 22.0452 17.4727L21.6059 17.5238C21.0234 17.6047 20.4473 17.7241 19.888 17.9022C19.3268 18.0736 18.7777 18.2826 18.2454 18.5272C18.2408 18.5291 18.2361 18.532 18.2314 18.533C18.1877 18.5551 18.144 18.5763 18.1012 18.5984C17.0235 19.1598 15.9895 19.805 15.0245 20.5465C13.5457 21.6847 12.2214 23.0261 11.0786 24.5196C11.9617 24.0285 12.8719 23.5894 13.8044 23.2139C15.8723 22.3838 18.0723 21.86 20.2956 21.8214C20.8493 21.8099 21.4059 21.8349 21.9568 21.8869C22.5096 21.9408 23.0587 22.0208 23.5994 22.1421C24.6836 22.3761 25.738 22.7439 26.7375 23.2273C27.2363 23.471 27.7249 23.7358 28.193 24.0353C28.4303 24.1787 28.6574 24.3405 28.8873 24.4956C29.0017 24.5745 29.1115 24.6602 29.2242 24.7411C29.3349 24.8239 29.4494 24.9038 29.5564 24.9924C30.4321 25.679 31.2455 26.4455 31.9956 27.2698C31.2194 26.4715 30.3847 25.7339 29.494 25.081C29.3852 24.9963 29.2688 24.9212 29.1562 24.8422C29.0417 24.7642 28.9301 24.6833 28.8147 24.6101C28.5811 24.4638 28.3521 24.3107 28.112 24.1768C27.6402 23.8956 27.1479 23.651 26.65 23.4276C25.6514 22.9837 24.6054 22.6602 23.5389 22.4666C23.0066 22.3655 22.4677 22.3058 21.9289 22.2711C21.3891 22.2384 20.8484 22.2326 20.3096 22.2625C18.1496 22.3722 16.0305 22.9529 14.0464 23.8273C13.0534 24.2644 12.0911 24.7767 11.1651 25.3497C10.7417 25.6135 10.3238 25.8899 9.91805 26.1798C9.30848 27.1273 8.76778 28.1249 8.28385 29.1495C7.94975 29.8505 7.64729 30.5689 7.36996 31.2979C7.66404 30.982 7.97487 30.6854 8.29781 30.4033C8.70729 30.0537 9.13445 29.7244 9.58395 29.4345C10.0344 29.1466 10.4969 28.877 10.9753 28.6478C11.4564 28.4225 11.9422 28.2087 12.441 28.0421L12.6281 27.9766L12.8161 27.9179L13.193 27.8004L13.5727 27.6993C13.6992 27.6646 13.8258 27.6309 13.9533 27.604C15.9942 27.1312 18.0863 27.0493 20.1272 27.2717C19.1044 27.3709 18.0891 27.474 17.0886 27.6521C16.0882 27.8235 15.1008 28.0469 14.1413 28.3435C14.0203 28.3782 13.9012 28.4177 13.783 28.4581L13.4266 28.5794L13.0738 28.7104L12.898 28.7759L12.7249 28.8481C12.3414 29.0002 11.9664 29.1736 11.5997 29.3575C11.9776 29.2785 12.3619 29.2246 12.7444 29.1909C13.1855 29.1562 13.6294 29.1659 14.065 29.216C13.6257 29.2179 13.1911 29.2602 12.7639 29.345C12.3377 29.4345 11.918 29.5482 11.5076 29.6936C11.099 29.839 10.697 30.0075 10.3052 30.1943C10.1135 30.2858 9.92363 30.3821 9.73657 30.4832C9.44714 30.6922 9.16981 30.9165 8.899 31.1505C7.95533 31.9584 7.14567 32.9204 6.47748 33.9883C6.26808 34.7221 6.08288 35.4626 5.91537 36.2089C5.64548 37.427 5.43795 38.6625 5.28067 39.9038C5.12712 41.146 5.02382 42.3959 4.96984 43.6477C4.91586 44.9005 4.91866 46.1562 4.96519 47.409C5.00986 48.6628 5.10758 49.9136 5.24996 51.1587C5.39328 52.4048 5.59151 53.6412 5.83347 54.868C6.08009 56.0939 6.36859 57.3091 6.72316 58.5022L6.85718 58.949L7.00422 59.3929L7.2983 60.2798C7.34948 60.4272 7.39229 60.5774 7.44906 60.7228L7.61472 61.159L7.94416 62.0334C8.85247 64.3521 9.97109 66.5843 11.2786 68.6922C12.5834 70.803 14.078 72.7867 15.7262 74.6269L16.3469 75.3154C16.5591 75.5388 16.7778 75.7564 16.9937 75.9769C17.2115 76.1965 17.4227 76.4208 17.6442 76.6356L18.318 77.2692L18.654 77.586L18.8233 77.7439L18.9974 77.8961L19.6953 78.5008L20.0443 78.8041C20.1616 78.9043 20.2844 78.9967 20.4036 79.094L21.1248 79.6698C24.9991 82.7118 29.414 85.02 34.0877 86.5097C38.7641 88.0051 43.7086 88.633 48.6475 88.4048Z" fill="url(#paint3_linear_98_540)"/>
<path d="M36.0344 16.2893C36.0344 16.2893 45.8731 13.3927 47.874 24.7719C47.712 23.8494 42.8895 23.6992 42.2352 23.6424C38.7156 23.3371 36.2391 20.8826 35.8901 17.2301C35.8901 17.2301 43.1221 19.6818 44.4585 21.885C44.4585 21.885 42.9453 18.9538 36.0344 16.2893Z" fill="url(#paint4_linear_98_540)"/>
<path d="M29.959 16.2536C29.959 16.2536 40.0295 18.1121 37.0077 29.2477C37.2525 28.3454 32.9827 26.0228 32.4178 25.6742C29.3839 23.8032 28.1974 20.4743 29.4304 17.0327C29.4304 17.0327 34.8924 22.5167 35.1595 25.1032C35.1604 25.1041 35.0422 21.7829 29.959 16.2536Z" fill="url(#paint5_linear_98_540)"/>
<path d="M23.348 17.2359C23.348 17.2359 28.6229 16.4703 28.8667 22.4878C28.8472 22.0005 26.3708 21.5653 26.0367 21.4873C24.2424 21.0694 23.1359 19.6201 23.2084 17.7106C23.2084 17.7106 26.7681 19.5103 27.3051 20.7458C27.3051 20.7458 26.7272 19.1223 23.348 17.2359Z" fill="url(#paint6_linear_98_540)"/>
<path d="M25.6716 15.9465C25.6716 15.9465 35.7476 14.1197 32.7584 2.97454C33.0004 3.87779 28.7241 6.18695 28.1583 6.53361C25.1188 8.39499 23.9229 11.7201 25.1458 15.1655C25.1458 15.1655 30.6235 9.69883 30.8981 7.11331C30.899 7.11331 30.7706 10.4336 25.6716 15.9465Z" fill="url(#paint7_linear_98_540)"/>
<path d="M14.2936 28.8308C14.2936 28.8308 24.5223 28.7239 23.5497 40.2466C23.6288 39.3125 19.0157 37.8498 18.3996 37.6167C15.0828 36.361 13.3202 33.3171 13.9158 29.6984C13.9158 29.6984 20.2664 34.0384 20.9923 36.5286C20.9905 36.5286 20.2795 33.2883 14.2936 28.8308Z" fill="url(#paint8_linear_98_540)"/>
<path d="M20.436 26.8924C20.436 26.8924 30.3501 24.2856 32.0383 35.7197C31.9015 34.7934 27.0854 34.5006 26.433 34.4246C22.9236 34.0153 20.5151 31.4895 20.2666 27.8283C20.2666 27.8283 27.4288 30.4919 28.7028 32.7336C28.7019 32.7336 27.2706 29.7591 20.436 26.8924Z" fill="url(#paint9_linear_98_540)"/>
<path d="M39.1488 23.7868C39.1488 23.7868 49.3784 23.6982 48.3864 35.219C48.4664 34.2849 43.8569 32.8145 43.2399 32.5795C39.925 31.3181 38.1679 28.2713 38.7682 24.6535C38.7682 24.6535 45.1114 29.0051 45.8336 31.4962C45.8336 31.4962 45.1273 28.2549 39.1488 23.7868Z" fill="url(#paint10_linear_98_540)"/>
<path d="M48.4349 40.9611L45.9575 40.5778C45.7342 39.5831 44.7412 36.6008 40.4658 32.3244C40.4649 32.3244 48.0505 33.3865 48.4349 40.9611Z" fill="url(#paint11_linear_98_540)"/>
<path d="M45.9382 40.5749L41.1212 39.8286C39.6461 38.0337 39.1845 35.6359 39.97 33.1265C39.9691 33.1265 45.1453 37.9027 45.9382 40.5749Z" fill="url(#paint12_linear_98_540)"/>
<path d="M32.3834 27.0618C32.3834 27.0618 41.539 29.1611 38.3618 39.2422C38.6196 38.4256 34.7938 36.129 34.2894 35.7881C31.5793 33.9546 30.6152 30.8587 31.8716 27.7552C31.8716 27.7552 36.6727 32.9936 36.8216 35.3731C36.8216 35.3731 36.8356 32.3263 32.3834 27.0618Z" fill="url(#paint13_linear_98_540)"/>
<path d="M30.4239 41.3867L24.9396 40.8147C24.1579 39.4415 23.8675 37.7737 24.1681 35.9614C24.1681 35.9624 28.5179 38.9466 30.4239 41.3867Z" fill="url(#paint14_linear_98_540)"/>
<path d="M33.4508 41.7025L30.618 41.4069C29.8474 40.0472 28.1611 37.7949 24.5483 35.0967C24.5483 35.0957 31.6677 35.0341 33.4508 41.7025Z" fill="url(#paint15_linear_98_540)"/>
<path d="M31.6369 15.2714C31.6369 15.2714 41.4431 18.2836 43.5687 6.92842C43.3965 7.849 38.573 7.94337 37.9178 7.99248C34.3954 8.25633 31.8919 10.681 31.5029 14.3297C31.5029 14.3297 38.7619 11.9627 40.1216 9.77491C40.1206 9.77491 38.5758 12.6878 31.6369 15.2714Z" fill="url(#paint16_linear_98_540)"/>
<path d="M14.6878 26.9915C14.6878 26.9915 22.6271 28.0835 22.9333 19.0337C22.9082 19.7675 19.1893 20.4483 18.6887 20.5696C15.9954 21.2186 14.3454 23.4093 14.4738 26.2799C14.4738 26.2799 19.8091 23.5336 20.603 21.6703C20.602 21.6703 19.7496 24.1181 14.6878 26.9915Z" fill="url(#paint17_linear_98_540)"/>
</g>
<defs>
<linearGradient id="paint0_linear_98_540" x1="6.74202" y1="66.4347" x2="82.279" y2="66.4347" gradientUnits="userSpaceOnUse">
<stop stop-color="#F7931E" stop-opacity="0.8"/>
<stop offset="0.00147625" stop-color="#F4921E" stop-opacity="0.8006"/>
<stop offset="0.0226" stop-color="#C6801D" stop-opacity="0.8087"/>
<stop offset="0.0453" stop-color="#9D701D" stop-opacity="0.8175"/>
<stop offset="0.0708" stop-color="#77621C" stop-opacity="0.8273"/>
<stop offset="0.0985" stop-color="#57551C" stop-opacity="0.838"/>
<stop offset="0.1291" stop-color="#3B4B1C" stop-opacity="0.8498"/>
<stop offset="0.1638" stop-color="#25421B" stop-opacity="0.8631"/>
<stop offset="0.2042" stop-color="#143C1B" stop-opacity="0.8787"/>
<stop offset="0.2541" stop-color="#09371B" stop-opacity="0.898"/>
<stop offset="0.3242" stop-color="#02351B" stop-opacity="0.925"/>
<stop offset="0.5188" stop-color="#00341B"/>
<stop offset="0.6561" stop-color="#00371C"/>
<stop offset="0.7482" stop-color="#004020"/>
<stop offset="0.8271" stop-color="#004F27"/>
<stop offset="0.8984" stop-color="#006431"/>
<stop offset="0.9641" stop-color="#00803D"/>
<stop offset="1" stop-color="#009245"/>
</linearGradient>
<linearGradient id="paint1_linear_98_540" x1="6.74206" y1="46.5548" x2="82.279" y2="46.5548" gradientUnits="userSpaceOnUse">
<stop stop-color="#F7931E"/>
<stop offset="0.00619258" stop-color="#EE901E"/>
<stop offset="0.0437" stop-color="#BD7D1D"/>
<stop offset="0.084" stop-color="#906B1D"/>
<stop offset="0.1264" stop-color="#695C1C"/>
<stop offset="0.1713" stop-color="#48501C"/>
<stop offset="0.2193" stop-color="#2E461C"/>
<stop offset="0.2718" stop-color="#193E1B"/>
<stop offset="0.3309" stop-color="#0B381B"/>
<stop offset="0.4022" stop-color="#03351B"/>
<stop offset="0.5188" stop-color="#00341B"/>
<stop offset="0.6423" stop-color="#00371C"/>
<stop offset="0.7364" stop-color="#004121"/>
<stop offset="0.8207" stop-color="#005128"/>
<stop offset="0.8994" stop-color="#006832"/>
<stop offset="0.9734" stop-color="#00853F"/>
<stop offset="1" stop-color="#009245"/>
</linearGradient>
<linearGradient id="paint2_linear_98_540" x1="87.7485" y1="21.3067" x2="65.872" y2="47.3479" gradientUnits="userSpaceOnUse">
<stop stop-color="#F7931E"/>
<stop offset="0.0238" stop-color="#E48C1E"/>
<stop offset="0.0893" stop-color="#B5791D"/>
<stop offset="0.1605" stop-color="#89691D"/>
<stop offset="0.2358" stop-color="#645B1C"/>
<stop offset="0.3162" stop-color="#454F1C"/>
<stop offset="0.4035" stop-color="#2C451C"/>
<stop offset="0.5001" stop-color="#183D1B"/>
<stop offset="0.6113" stop-color="#0A381B"/>
<stop offset="0.7497" stop-color="#02351B"/>
<stop offset="1" stop-color="#00341B"/>
</linearGradient>
<linearGradient id="paint3_linear_98_540" x1="60.114" y1="68.1803" x2="2.85743" y2="35.7169" gradientUnits="userSpaceOnUse">
<stop stop-color="#F7931E"/>
<stop offset="0.2017" stop-color="#C08924"/>
<stop offset="0.5966" stop-color="#5A782E"/>
<stop offset="0.8712" stop-color="#196C34"/>
<stop offset="1" stop-color="#006837"/>
</linearGradient>
<linearGradient id="paint4_linear_98_540" x1="49.3524" y1="24.8331" x2="36.3248" y2="17.4467" gradientUnits="userSpaceOnUse">
<stop stop-color="#F7931E"/>
<stop offset="0.2017" stop-color="#C08924"/>
<stop offset="0.5966" stop-color="#5A782E"/>
<stop offset="0.8712" stop-color="#196C34"/>
<stop offset="1" stop-color="#006837"/>
</linearGradient>
<linearGradient id="paint5_linear_98_540" x1="38.3098" y1="29.9725" x2="29.6975" y2="17.4473" gradientUnits="userSpaceOnUse">
<stop stop-color="#F7931E"/>
<stop offset="0.2017" stop-color="#C08924"/>
<stop offset="0.5966" stop-color="#5A782E"/>
<stop offset="0.8712" stop-color="#196C34"/>
<stop offset="1" stop-color="#006837"/>
</linearGradient>
<linearGradient id="paint6_linear_98_540" x1="29.6252" y1="22.6284" x2="23.4005" y2="17.877" gradientUnits="userSpaceOnUse">
<stop stop-color="#F7931E"/>
<stop offset="0.2017" stop-color="#C08924"/>
<stop offset="0.5966" stop-color="#5A782E"/>
<stop offset="0.8712" stop-color="#196C34"/>
<stop offset="1" stop-color="#006837"/>
</linearGradient>
<linearGradient id="paint7_linear_98_540" x1="34.0599" y1="2.25382" x2="25.4106" y2="14.7515" gradientUnits="userSpaceOnUse">
<stop stop-color="#F7931E"/>
<stop offset="0.2017" stop-color="#C08924"/>
<stop offset="0.5966" stop-color="#5A782E"/>
<stop offset="0.8712" stop-color="#196C34"/>
<stop offset="1" stop-color="#006837"/>
</linearGradient>
<linearGradient id="paint8_linear_98_540" x1="24.9585" y1="40.7084" x2="14.2265" y2="30.0775" gradientUnits="userSpaceOnUse">
<stop stop-color="#F7931E"/>
<stop offset="0.2017" stop-color="#C08924"/>
<stop offset="0.5966" stop-color="#5A782E"/>
<stop offset="0.8712" stop-color="#196C34"/>
<stop offset="1" stop-color="#006837"/>
</linearGradient>
<linearGradient id="paint9_linear_98_540" x1="33.5147" y1="35.8231" x2="20.6877" y2="28.069" gradientUnits="userSpaceOnUse">
<stop stop-color="#F7931E"/>
<stop offset="0.2017" stop-color="#C08924"/>
<stop offset="0.5966" stop-color="#5A782E"/>
<stop offset="0.8712" stop-color="#196C34"/>
<stop offset="1" stop-color="#006837"/>
</linearGradient>
<linearGradient id="paint10_linear_98_540" x1="49.796" y1="35.6842" x2="39.0806" y2="25.0346" gradientUnits="userSpaceOnUse">
<stop stop-color="#F7931E"/>
<stop offset="0.2017" stop-color="#C08924"/>
<stop offset="0.5966" stop-color="#5A782E"/>
<stop offset="0.8712" stop-color="#196C34"/>
<stop offset="1" stop-color="#006837"/>
</linearGradient>
<linearGradient id="paint11_linear_98_540" x1="50.0497" y1="40.1749" x2="39.982" y2="34.4667" gradientUnits="userSpaceOnUse">
<stop stop-color="#F7931E"/>
<stop offset="0.2017" stop-color="#C08924"/>
<stop offset="0.5966" stop-color="#5A782E"/>
<stop offset="0.8712" stop-color="#196C34"/>
<stop offset="1" stop-color="#006837"/>
</linearGradient>
<linearGradient id="paint12_linear_98_540" x1="46.9741" y1="40.38" x2="38.9996" y2="35.8586" gradientUnits="userSpaceOnUse">
<stop stop-color="#F7931E"/>
<stop offset="0.2017" stop-color="#C08924"/>
<stop offset="0.5966" stop-color="#5A782E"/>
<stop offset="0.8712" stop-color="#196C34"/>
<stop offset="1" stop-color="#006837"/>
</linearGradient>
<linearGradient id="paint13_linear_98_540" x1="39.5266" y1="39.9562" x2="32.1128" y2="28.1354" gradientUnits="userSpaceOnUse">
<stop stop-color="#F7931E"/>
<stop offset="0.2017" stop-color="#C08924"/>
<stop offset="0.5966" stop-color="#5A782E"/>
<stop offset="0.8712" stop-color="#196C34"/>
<stop offset="1" stop-color="#006837"/>
</linearGradient>
<linearGradient id="paint14_linear_98_540" x1="30.8163" y1="42.1902" x2="23.5146" y2="38.0503" gradientUnits="userSpaceOnUse">
<stop stop-color="#F7931E"/>
<stop offset="0.2017" stop-color="#C08924"/>
<stop offset="0.5966" stop-color="#5A782E"/>
<stop offset="0.8712" stop-color="#196C34"/>
<stop offset="1" stop-color="#006837"/>
</linearGradient>
<linearGradient id="paint15_linear_98_540" x1="34.6044" y1="41.6952" x2="24.7072" y2="36.0836" gradientUnits="userSpaceOnUse">
<stop stop-color="#F7931E"/>
<stop offset="0.2017" stop-color="#C08924"/>
<stop offset="0.5966" stop-color="#5A782E"/>
<stop offset="0.8712" stop-color="#196C34"/>
<stop offset="1" stop-color="#006837"/>
</linearGradient>
<linearGradient id="paint16_linear_98_540" x1="45.0457" y1="6.88374" x2="31.9416" y2="14.1224" gradientUnits="userSpaceOnUse">
<stop stop-color="#F7931E"/>
<stop offset="0.2017" stop-color="#C08924"/>
<stop offset="0.5966" stop-color="#5A782E"/>
<stop offset="0.8712" stop-color="#196C34"/>
<stop offset="1" stop-color="#006837"/>
</linearGradient>
<linearGradient id="paint17_linear_98_540" x1="24.071" y1="18.814" x2="14.7585" y2="26.0262" gradientUnits="userSpaceOnUse">
<stop stop-color="#F7931E"/>
<stop offset="0.2017" stop-color="#C08924"/>
<stop offset="0.5966" stop-color="#5A782E"/>
<stop offset="0.8712" stop-color="#196C34"/>
<stop offset="1" stop-color="#006837"/>
</linearGradient>
</defs>
</svg>
